<svg width="24" height="24" viewBox="0 0 24 24" fill="none" xmlns="http://www.w3.org/2000/svg">
<path d="M16.6078 18.9231H6.54771C5.69647 18.9231 5 19.6154 5 20.4615V22H18.9294V20.4615C18.9294 19.6154 18.2329 18.9231 17.3817 18.9231H16.6078ZM16.6078 18.9231C16.6078 16.9231 17.3817 15.0769 18.7746 13.6923L18.9294 13.5385C19.3937 9.84615 17.5365 6.15385 14.2863 4.30769C13.822 3.30769 12.8933 2.53846 11.8873 2.23077L11.1908 2V4.30769L9.64313 5.07692V5.84615L5.69647 8.46154C5.23216 8.76923 5 9.23077 5 9.76923V11.2308L5.85124 11.0769C7.86326 10.6923 9.95267 10.4615 11.9647 10.4615L11.5778 10.8462C8.86928 12.7692 7.32157 15.8462 6.54771 18.9231" stroke="white" stroke-width="2" stroke-miterlimit="10" stroke-linecap="round" stroke-linejoin="round"/>
</svg>
