<svg width="24" height="24" viewBox="0 0 24 24" fill="none" xmlns="http://www.w3.org/2000/svg">
<path d="M7.45455 18C5.93939 18 4.65152 17.4167 3.59091 16.25C2.5303 15.0833 2 13.6667 2 12C2 10.3333 2.5303 8.91667 3.59091 7.75C4.65152 6.58333 5.93939 6 7.45455 6H16.5455C18.0606 6 19.3485 6.58333 20.4091 7.75C21.4697 8.91667 22 10.3333 22 12C22 13.6667 21.4697 15.0833 20.4091 16.25C19.3485 17.4167 18.0606 18 16.5455 18H7.45455ZM7.45455 15C8.21212 15 8.85606 14.7083 9.38636 14.125C9.91667 13.5417 10.1818 12.8333 10.1818 12C10.1818 11.1667 9.91667 10.4583 9.38636 9.875C8.85606 9.29167 8.21212 9 7.45455 9C6.69697 9 6.05303 9.29167 5.52273 9.875C4.99242 10.4583 4.72727 11.1667 4.72727 12C4.72727 12.8333 4.99242 13.5417 5.52273 14.125C6.05303 14.7083 6.69697 15 7.45455 15Z" fill="#A6A5A5"/>
</svg>
