<svg width="24" height="24" viewBox="0 0 24 24" fill="none" xmlns="http://www.w3.org/2000/svg">
<path d="M7.45455 18C5.93939 18 4.65152 17.4167 3.59091 16.25C2.5303 15.0833 2 13.6667 2 12C2 10.3333 2.5303 8.91667 3.59091 7.75C4.65152 6.58333 5.93939 6 7.45455 6H16.5455C18.0606 6 19.3485 6.58333 20.4091 7.75C21.4697 8.91667 22 10.3333 22 12C22 13.6667 21.4697 15.0833 20.4091 16.25C19.3485 17.4167 18.0606 18 16.5455 18H7.45455ZM16.5455 15C17.303 15 17.947 14.7083 18.4773 14.125C19.0076 13.5417 19.2727 12.8333 19.2727 12C19.2727 11.1667 19.0076 10.4583 18.4773 9.875C17.947 9.29167 17.303 9 16.5455 9C15.7879 9 15.1439 9.29167 14.6136 9.875C14.0833 10.4583 13.8182 11.1667 13.8182 12C13.8182 12.8333 14.0833 13.5417 14.6136 14.125C15.1439 14.7083 15.7879 15 16.5455 15Z" fill="black"/>
</svg>
