<svg width="24" height="24" viewBox="0 0 24 24" fill="none" xmlns="http://www.w3.org/2000/svg">
<path d="M18.7756 14L21 16.496L11.2188 21.7837C11.2188 21.7837 9.93902 22.4734 9.32959 21.3896C6.89191 17.1201 18.7756 14 18.7756 14Z" fill="#256382"/>
<path d="M11.4806 18.9069C11.4806 18.9069 9.72097 19.6799 10.0383 21.1251C10.3844 22.6375 11.7979 21.73 11.7979 21.73L20.5961 16.6887C20.5961 16.6887 20.1058 15.0755 21 14L11.4806 18.9069Z" fill="#D9E3E8"/>
<path d="M12.7138 5L22 14.491L11.0283 19L4 7.45946L12.7138 5Z" fill="#42ADE2"/>
<path d="M20.9688 15.3125L14.5938 18.0625L20.8438 15.0312L20.9688 15.3125Z" fill="#94989B"/>
<path d="M20.875 16.125L14.0938 19.0938L20.75 15.8438L20.875 16.125Z" fill="#94989B"/>
<path d="M20.9375 16.5938L12.2812 20.5625L20.8125 16.3125L20.9375 16.5938Z" fill="#94989B"/>
<path d="M9.43542 21C8.43173 18.6872 11 18.2864 11 18.2864L4.47601 7.00004C4.47601 7.00004 3 6.9692 3 8.66523C3 9.37448 3.2952 9.89871 3.2952 9.89871L9.43542 21Z" fill="#428BC1"/>
<path d="M4.40975 12L2 14.496L12.5963 19.7837C12.5963 19.7837 13.9827 20.4734 14.6429 19.3896C17.2838 15.1201 4.40975 12 4.40975 12Z" fill="#547725"/>
<path d="M12.3805 16.2935C12.3805 16.2935 14.3052 16.9699 13.9581 18.2344C13.5795 19.5578 12.065 18.7638 12.065 18.7638L2.44173 14.3526C2.44173 14.3526 2.97811 12.941 2 12L12.3805 16.2935Z" fill="#D9E3E8"/>
<path d="M11.2862 2L2 11.491L12.9717 16L20 4.45946L11.2862 2Z" fill="#83BF4F"/>
<path d="M3 12.6875L9.25 15.7188L2.875 12.9687L3 12.6875Z" fill="#94989B"/>
<path d="M3.125 13.5L9.75 16.75L2.96875 13.7813L3.125 13.5Z" fill="#94989B"/>
<path d="M3.0625 13.9688L11.5625 18.2188L2.90625 14.25L3.0625 13.9688Z" fill="#94989B"/>
<path d="M14.5646 19C15.5683 16.6872 13 16.2864 13 16.2864L19.524 5.00004C19.524 5.00004 21 4.9692 21 6.66523C21 7.37448 20.7048 7.89871 20.7048 7.89871L14.5646 19Z" fill="#699635"/>
<path d="M19.9835 10L22 12.1931L13.0413 16.819C13.0413 16.819 11.8513 17.4016 11.2893 16.4764C9.10746 12.7413 19.9835 10 19.9835 10Z" fill="#962C2C"/>
<path d="M13.347 13.6735C13.347 13.6735 11.7285 14.241 12.0398 15.346C12.351 16.4809 13.6272 15.794 13.6272 15.794L21.6265 12.001C21.6265 12.001 21.1907 10.8064 22 10L13.347 13.6735Z" fill="#D9E3E8"/>
<path d="M14.2803 2L22 10.128L12.8682 14L7 4.112L14.2803 2Z" fill="#ED4C5C"/>
<path d="M14.4658 4L16 5.76667L10.3425 8L9 5.73333L14.4658 4Z" fill="white"/>
<path d="M21.25 10.9062L15.875 13.1875L21.125 10.625L21.25 10.9062Z" fill="#94989B"/>
<path d="M21.1875 11.5938L15.4375 14.0625L21.0625 11.3125L21.1875 11.5938Z" fill="#94989B"/>
<path d="M21.25 11.9687L13.9375 15.3125L21.0937 11.6875L21.25 11.9687Z" fill="#94989B"/>
<path d="M11.6364 16C10.7879 14.0261 13 13.6815 13 13.6815L7.30303 4.00005C7.30303 4.00005 6 3.96872 6 5.40997C6 6.00527 6.24242 6.47524 6.24242 6.47524L11.6364 16Z" fill="#C94747"/>
</svg>
