<svg width="24" height="24" viewBox="0 0 24 24" fill="none" xmlns="http://www.w3.org/2000/svg">
<path d="M7.76471 12C7.76471 11.7589 7.85147 11.5277 8.00591 11.3572C8.16035 11.1867 8.36982 11.0909 8.58824 11.0909H16V5.18182C16 3.36364 14.2608 2 12.7059 2H4.88235C4.11816 2.0009 3.38549 2.33642 2.84512 2.93293C2.30476 3.52944 2.00082 4.33822 2 5.18182V18.8182C2.00082 19.6618 2.30476 20.4706 2.84512 21.0671C3.38549 21.6636 4.11816 21.9991 4.88235 22H13.1176C13.8818 21.9991 14.6145 21.6636 15.1549 21.0671C15.6952 20.4706 15.9992 19.6618 16 18.8182V12.9091H8.58824C8.36982 12.9091 8.16035 12.8133 8.00591 12.6428C7.85147 12.4723 7.76471 12.2411 7.76471 12Z" fill="#3ECD7A"/>
<path d="M21.8049 11.8354L18.4714 7.2521C18.3453 7.08745 18.1775 6.99701 18.0036 7.00008C17.8298 7.00314 17.6637 7.09945 17.5407 7.26849C17.4178 7.43752 17.3478 7.6659 17.3455 7.90493C17.3433 8.14396 17.4091 8.37473 17.5288 8.54804L19.7239 11.5667H16V13.4001H19.7239L17.5288 16.4188C17.4643 16.503 17.4127 16.6042 17.3771 16.7163C17.3415 16.8285 17.3225 16.9493 17.3214 17.0716C17.3202 17.1939 17.3369 17.3154 17.3705 17.4287C17.404 17.542 17.4537 17.645 17.5166 17.7315C17.5795 17.818 17.6544 17.8864 17.7368 17.9325C17.8193 17.9785 17.9076 18.0015 17.9966 17.9999C18.0856 17.9984 18.1734 17.9723 18.2549 17.9233C18.3365 17.8743 18.4101 17.8034 18.4714 17.7147L21.8049 13.1314C21.9298 12.9595 22 12.7264 22 12.4834C22 12.2404 21.9298 12.0073 21.8049 11.8354Z" fill="#3ECD7A"/>
</svg>
