<svg width="20" height="20" viewBox="0 0 20 20" fill="none" xmlns="http://www.w3.org/2000/svg">
<path d="M0 17.3333C0 18.0406 0.263392 18.7189 0.732233 19.219C1.20107 19.719 1.83696 20 2.5 20H17.5C18.163 20 18.7989 19.719 19.2678 19.219C19.7366 18.7189 20 18.0406 20 17.3333V6C20 5.29276 19.7366 4.61448 19.2678 4.11438C18.7989 3.61428 18.163 3.33333 17.5 3.33333H11.875C9.64875 3.33333 10 0 6.60125 0H2.5C1.83696 0 1.20107 0.280951 0.732233 0.781048C0.263392 1.28115 0 1.95942 0 2.66667L0 17.3333Z" fill="#726AEC"/>
<rect x="11" y="5" width="2" height="2" fill="#DBB1D1"/>
<rect x="14" y="5" width="2" height="2" fill="#DBB1D1"/>
<rect x="17" y="5" width="2" height="2" fill="#DBB1D1"/>
<rect x="3" y="1" width="4" height="4" fill="#1046AC"/>
</svg>
