<svg width="24" height="24" viewBox="0 0 24 24" fill="none" xmlns="http://www.w3.org/2000/svg">
<g clip-path="url(#clip0_907_23114)">
<path d="M24 0H0V2.66H24V0Z" fill="#DC4437"/>
<path d="M24 5.33984H0V7.99984H24V5.33984Z" fill="#DC4437"/>
<path d="M24 16H0V18.66H24V16Z" fill="#DC4437"/>
<path d="M24 21.3398H0V23.9998H24V21.3398Z" fill="#DC4437"/>
<path d="M24 10.6602H0V13.3202H24V10.6602Z" fill="#DC4437"/>
<path d="M24 2.66016H0V5.32016H24V2.66016Z" fill="white"/>
<path d="M24 8H0V10.66H24V8Z" fill="white"/>
<path d="M24 18.6602H0V21.3202H24V18.6602Z" fill="white"/>
<path d="M24 13.3398H0V15.9998H24V13.3398Z" fill="white"/>
<path d="M12.9231 0H0V13.34H12.9231V0Z" fill="#2A66B7"/>
<path d="M2.49008 0.800781L2.9147 1.78078L3.8747 1.94078L3.17316 2.72078L3.33931 3.80078L2.49008 3.28078L1.64085 3.80078L1.80701 2.72078L1.10547 1.94078L2.06547 1.78078L2.49008 0.800781Z" fill="white"/>
<path d="M6.27915 0.800781L6.70376 1.78078L7.66376 1.94078L6.98068 2.72078L7.12838 3.80078L6.27915 3.28078L5.42992 3.80078L5.57761 2.72078L4.89453 1.94078L5.85453 1.78078L6.27915 0.800781Z" fill="white"/>
<path d="M10.0604 0.800781L10.485 1.78078L11.445 1.94078L10.7435 2.72078L10.9096 3.80078L10.0604 3.28078L9.21117 3.80078L9.37732 2.72078L8.67578 1.94078L9.63578 1.78078L10.0604 0.800781Z" fill="white"/>
<path d="M4.43149 4.7998L4.85611 5.7798L5.81611 5.9398L5.13303 6.7198L5.28072 7.7998L4.43149 7.2798L3.58226 7.7998L3.72995 6.7198L3.04688 5.9398L4.00688 5.7798L4.43149 4.7998Z" fill="white"/>
<path d="M8.21274 4.7998L8.63736 5.7798L9.59736 5.9398L8.89582 6.7198L9.06197 7.7998L8.21274 7.2798L7.36351 7.7998L7.52966 6.7198L6.82812 5.9398L7.78813 5.7798L8.21274 4.7998Z" fill="white"/>
<path d="M2.49008 9.04004L2.9147 10.02L3.8747 10.18L3.17316 10.94L3.33931 12.04L2.49008 11.52L1.64085 12.04L1.80701 10.94L1.10547 10.18L2.06547 10.02L2.49008 9.04004Z" fill="white"/>
<path d="M6.27915 9.04004L6.70376 10.02L7.66376 10.18L6.98068 10.94L7.12838 12.04L6.27915 11.52L5.42992 12.04L5.57761 10.94L4.89453 10.18L5.85453 10.02L6.27915 9.04004Z" fill="white"/>
<path d="M10.0604 9.04004L10.485 10.02L11.445 10.18L10.7435 10.94L10.9096 12.04L10.0604 11.52L9.21117 12.04L9.37732 10.94L8.67578 10.18L9.63578 10.02L10.0604 9.04004Z" fill="white"/>
</g>
<defs>
<clipPath id="clip0_907_23114">
<rect width="24" height="24" fill="white"/>
</clipPath>
</defs>
</svg>
