<svg width="24" height="24" viewBox="0 0 24 24" fill="none" xmlns="http://www.w3.org/2000/svg">
<path d="M9.26368 22L8.86567 18.8C8.65008 18.7167 8.4471 18.6167 8.25672 18.5C8.06567 18.3833 7.87894 18.2583 7.69652 18.125L4.73632 19.375L2 14.625L4.56219 12.675C4.54561 12.5583 4.53731 12.4457 4.53731 12.337V11.662C4.53731 11.554 4.54561 11.4417 4.56219 11.325L2 9.375L4.73632 4.625L7.69652 5.875C7.87894 5.74167 8.06965 5.61667 8.26866 5.5C8.46766 5.38333 8.66667 5.28333 8.86567 5.2L9.26368 2H14.7363L15.1343 5.2C15.3499 5.28333 15.5532 5.38333 15.7443 5.5C15.9347 5.61667 16.1211 5.74167 16.3035 5.875L19.2637 4.625L22 9.375L19.4378 11.325C19.4544 11.4417 19.4627 11.554 19.4627 11.662V12.337C19.4627 12.4457 19.4461 12.5583 19.4129 12.675L21.9751 14.625L19.2388 19.375L16.3035 18.125C16.1211 18.2583 15.9304 18.3833 15.7313 18.5C15.5323 18.6167 15.3333 18.7167 15.1343 18.8L14.7363 22H9.26368ZM12.0498 15.5C13.0116 15.5 13.8325 15.1583 14.5124 14.475C15.1924 13.7917 15.5323 12.9667 15.5323 12C15.5323 11.0333 15.1924 10.2083 14.5124 9.525C13.8325 8.84167 13.0116 8.5 12.0498 8.5C11.0713 8.5 10.2461 8.84167 9.57413 9.525C8.90282 10.2083 8.56717 11.0333 8.56717 12C8.56717 12.9667 8.90282 13.7917 9.57413 14.475C10.2461 15.1583 11.0713 15.5 12.0498 15.5Z" fill="#6367E9"/>
</svg>
