<svg width="24" height="24" viewBox="0 0 24 24" fill="none" xmlns="http://www.w3.org/2000/svg">
<path d="M21.0909 5H2.90909C2.40703 5 2 5.38489 2 5.85965V18.1403C2 18.6151 2.40703 19 2.90909 19H21.0909C21.593 19 22 18.6151 22 18.1403V5.85965C22 5.38489 21.593 5 21.0909 5ZM20.1818 17.2808H3.81818V6.7193H20.1818V17.2808Z" fill="#3ECD7A"/>
<path d="M9.72704 15.2957C10.5949 15.2957 11.3891 14.9935 11.9998 14.4953C12.6104 14.9934 13.4046 15.2957 14.2725 15.2957C16.1941 15.2957 17.7573 13.8175 17.7573 12.0004C17.7573 10.1833 16.1941 8.70508 14.2725 8.70508C13.4046 8.70508 12.6104 9.00733 11.9998 9.50547C11.3891 9.00739 10.5949 8.70508 9.72704 8.70508C7.80546 8.70508 6.24219 10.1833 6.24219 12.0004C6.24219 13.8175 7.80546 15.2957 9.72704 15.2957ZM16.8482 12.0004C16.8482 13.3435 15.6928 14.4361 14.2725 14.4361C13.6372 14.4361 13.0553 14.217 12.6057 13.8552C12.9879 13.3265 13.2119 12.6878 13.2119 12.0004C13.2119 11.313 12.9879 10.6744 12.6057 10.1456C13.0553 9.78377 13.6372 9.56473 14.2725 9.56473C15.6928 9.56473 16.8482 10.6573 16.8482 12.0004Z" fill="#3ECD7A"/>
</svg>
